<?xml version="1.0" encoding="UTF-8"?>
<!--Generator: Apple Native CoreSVG 341-->
<!DOCTYPE svg
PUBLIC "-//W3C//DTD SVG 1.1//EN"
       "http://www.w3.org/Graphics/SVG/1.1/DTD/svg11.dtd">
<svg version="1.1" xmlns="http://www.w3.org/2000/svg" xmlns:xlink="http://www.w3.org/1999/xlink" viewBox="0 0 645.02 547.119">
 <g>
  <rect height="547.119" opacity="0" width="645.02" x="0" y="0"/>
  <path d="M111.084 547.119C135.742 547.119 148.682 529.785 155.518 507.568L296.387 47.8516L619.629 47.8516C634.766 47.8516 645.02 38.3301 645.02 23.9258C645.02 9.76562 634.766 0.488281 619.629 0.488281L295.654 0.488281C268.799 0.488281 256.592 10.498 249.268 33.4473L114.258 483.643L109.619 483.643L49.0723 271.973C44.9219 257.324 37.1094 250.488 24.4141 250.488C10.498 250.488 0 260.498 0 273.682C0 278.809 1.2207 283.691 2.68555 288.086L69.8242 510.498C76.416 531.982 88.3789 547.119 111.084 547.119Z" fill="#007aff"/>
  <path d="M356.689 486.328C366.455 486.328 371.582 482.91 379.15 472.412L454.834 363.281L456.299 363.281L531.494 472.412C539.062 482.91 544.189 486.328 553.955 486.328C567.383 486.328 577.148 477.295 577.148 464.6C577.148 458.496 575.684 454.102 571.777 448.73L485.596 328.857L572.51 208.496C576.66 202.881 578.125 198.242 578.125 192.627C578.125 180.908 568.604 171.875 555.664 171.875C546.143 171.875 540.527 175.293 533.691 185.059L460.205 294.434L458.74 294.434L383.789 184.814C376.953 175.293 371.338 171.875 361.084 171.875C348.389 171.875 337.891 181.641 337.891 194.092C337.891 200.439 339.6 204.834 344.238 210.938L427.246 327.637L340.088 450.439C335.938 455.811 334.717 459.717 334.717 465.82C334.717 477.295 344.238 486.328 356.689 486.328Z" fill="black" fill-opacity="0.25"/>
 </g>
</svg>
